<?xml version="1.0" encoding="UTF-8" standalone="no"?>
<svg
   width="100"
   height="100"
   viewBox="0 0 100 100"
   version="1.1"
   id="svg48"
   sodipodi:docname="deal.svg"
   inkscape:version="1.2.1 (9c6d41e410, 2022-07-14)"
   xmlns:inkscape="http://www.inkscape.org/namespaces/inkscape"
   xmlns:sodipodi="http://sodipodi.sourceforge.net/DTD/sodipodi-0.dtd"
   xmlns="http://www.w3.org/2000/svg"
   xmlns:svg="http://www.w3.org/2000/svg">
  <defs
     id="defs52" />
  <sodipodi:namedview
     id="namedview50"
     pagecolor="#ffffff"
     bordercolor="#000000"
     borderopacity="0.25"
     inkscape:showpageshadow="2"
     inkscape:pageopacity="0.0"
     inkscape:pagecheckerboard="0"
     inkscape:deskcolor="#d1d1d1"
     showgrid="false"
     inkscape:zoom="9.6895726"
     inkscape:cx="47.886529"
     inkscape:cy="47.37051"
     inkscape:window-width="1920"
     inkscape:window-height="1057"
     inkscape:window-x="-8"
     inkscape:window-y="-8"
     inkscape:window-maximized="1"
     inkscape:current-layer="g46" />
  <g
     fill="none"
     fill-rule="evenodd"
     id="g46"
     transform="matrix(1.6129032,0,0,1.6129032,-1.5417368,-11.679464)">
    <polygon
       fill="#FFDD95"
       points="48.78,37.104 43.001,39.523 44.886,41.889 29.414,49.202 15.77,37.045 8.114,36.949 8.715,24.166 17.965,23.955 21.307,23.054 29.099,23.143 32.921,20.016 39.832,20.07 46.169,24.003 55.957,24.093 55.378,37.2 "
       id="polygon28"
       style="fill:#caf0f8;fill-opacity:0.7" />
    <path
       stroke="#FFAF40"
       stroke-linecap="round"
       stroke-width="2"
       d="m 9.1148333,37.030591 6.8544757,-0.02007 12.188769,10.867968 c 0.822846,0.733682 2.309217,0.972118 3.324768,0.530445 L 43.673408,43.107146 C 44.68678,42.666421 44.8999,41.661367 44.138929,40.851119 L 33.571055,29.598923 27.541031,33.856308 c -1.355254,0.956852 -3.371073,0.752613 -4.504901,-0.458789 l 0.576152,0.615571 c -1.132735,-1.210234 -1.151776,-3.187496 -0.04238,-4.416499 l 8.538276,-9.458845 7.984915,-0.07888 6.191002,3.968863 8.00358,-0.01866"
       id="path30"
       style="stroke:#165d75;stroke-opacity:1" />
    <polyline
       stroke="#FFAF40"
       stroke-linecap="round"
       stroke-width="2"
       points="9.842 24.121 18.05 24.13 21.143 22.99 29.37 23.013"
       id="polyline32"
       style="fill:#165d75;fill-opacity:1;stroke:#165d75;stroke-opacity:1" />
    <polyline
       stroke="#FFAF40"
       stroke-linecap="round"
       stroke-width="2"
       points="43.421 39.761 49.323 37.045 55.114 37.065"
       id="polyline34"
       style="fill:#165d75;fill-opacity:1;stroke:#165d75;stroke-opacity:1" />
    <rect
       width="9"
       height="19"
       x="54"
       y="22"
       fill="#D8D8D8"
       id="rect36"
       style="fill:#165d75;fill-opacity:1" />
    <rect
       width="9"
       height="18"
       x="1"
       y="21"
       fill="#D8D8D8"
       id="rect38"
       style="fill:#165d75;fill-opacity:1" />
    <path
       stroke="#FFAF40"
       stroke-linecap="round"
       stroke-width="2"
       d="m 34.277491,46.956269 -5.059507,-4.266087 m 8.677969,2.543312 -4.64783,-4.173116 m 8.598732,2.459497 -5.028869,-4.50767"
       id="path40"
       style="fill:#165d75;fill-opacity:1;stroke:#165d75;stroke-opacity:1" />
    <rect
       width="2"
       height="2"
       x="5"
       y="35"
       fill="#979797"
       id="rect42"
       style="fill:#c9eff8;fill-opacity:0.701961" />
    <rect
       width="2"
       height="2"
       x="57"
       y="25"
       fill="#979797"
       id="rect44"
       style="fill:#c9eff8;fill-opacity:0.701961" />
  </g>
</svg>
